<svg xmlns="http://www.w3.org/2000/svg" version="1.1" xmlns:xlink="http://www.w3.org/1999/xlink" xmlns:svgjs="http://svgjs.dev/svgjs" width="2000" height="1500" viewBox="0 0 2000 1500"><rect width="2000" height="1500" fill="#096a2e"></rect><g transform="matrix(0.4444444444444444,0,0,0.4444444444444444,555.5555555555557,250)"><svg viewBox="0 0 320 360" data-background-color="#096a2e" preserveAspectRatio="xMidYMid meet" height="2250" width="2000" xmlns="http://www.w3.org/2000/svg" xmlns:xlink="http://www.w3.org/1999/xlink"><g id="tight-bounds" transform="matrix(1,0,0,1,0,0)"><svg viewBox="0 0 320 360" height="360" width="320"><g><svg></svg></g><g><svg viewBox="0 0 320 360" height="360" width="320"><g><path xmlns="http://www.w3.org/2000/svg" d="M20.961 227.22l3.726 4.658-1.863-6.056c-0.466-2.795-3.726 0.466-1.863 1.398M25.153 224.425c1.397 2.329 2.795 4.658 2.795 6.987 0 3.261 2.795 4.658 5.123 5.589-3.261-3.726-5.124-13.974-7.918-12.576M204.017 26.929c7.918 0 15.371-0.932 23.756 0.931 20.495 5.124 37.729 15.371 49.374 29.811l32.606 52.169c1.397 13.042 4.192 27.482 3.726 43.319 3.261 0 2.795-4.658 6.521-5.59-3.726 9.316-5.59 20.961-6.521 34.469-2.329-7.453 0-18.632 0.466-24.687-3.261 5.124-5.124 1.397-5.124-0.932 0.466-3.726-1.397-3.261-2.795-4.658-5.124-4.658-8.384-9.782-12.11-17.7 2.329-6.055 2.795-14.905-4.658-19.563-2.329-1.397-5.124-3.726-6.521-7.453-1.863-5.124-5.124-11.179-4.193-19.097 0.466-2.329-6.987 5.124-11.179 1.863-18.166-12.576-36.332-27.016-58.224-39.127-11.645 0-20.029-4.192-24.221-9.316-3.726-4.658-0.932-10.713 4.658-11.179 3.261 0 6.987-0.932 9.782 0.932 0.466-1.863 2.329-4.192 4.657-4.192M157.904 16.215l0.932 0.466c4.658 0.932 6.987 7.453 12.11 5.124 0 3.261 0.466 6.521-0.466 8.85-1.397 3.726-5.59 3.726-8.85 3.726-31.208-1.863-49.374 11.179-68.471 22.358-5.124 3.261-10.713 5.59-14.906 9.782-20.029 18.632-41.921 35.866-47.045 70.335l-4.192 38.195c-0.466 4.192-5.124 8.384-4.192 13.508l3.26 22.824c-3.261-3.261-5.124 0.932-4.192 2.795 0.466 1.397 2.329 6.055 5.124 1.863 3.726 6.987 7.453 20.495 12.576 26.55 15.837 18.632 36.332 35.4 53.101 52.169 4.192-0.932 7.453-0.932 8.384-3.727 1.397 2.795-1.397 5.59-3.726 6.056 7.453 4.658 15.837 8.85 27.016 9.781 14.44 0.932 27.948 3.261 40.524 6.522 6.521-1.863 13.042-2.795 20.029-3.261 2.329 0 3.726-3.726 6.521-4.658l0.466-4.658c2.795 4.192 2.329-1.397 0.466-4.192 3.261 2.795 4.192 5.124 5.589 6.987 0-1.397 3.726-6.521 3.727-0.466l0.931-6.055c1.397-0.932 1.863 5.124 3.261 0.931 1.397-4.192 4.192-0.932 6.987-2.329-0.932 1.863-0.466 5.59 2.794 3.261l3.727-3.261c2.329 5.59 6.055 3.261 7.918 2.329 20.495-13.042 40.99-28.413 60.553-43.784l-0.466 6.055 2.329-7.453c2.329 2.329 4.192 0.466 5.124-0.931 2.795-4.658 6.521-9.316 12.577-13.508-7.453 20.029-16.303 35.866-27.482 48.908l-4.658 5.59c0 3.261-0.932 7.453-4.658 7.918-1.863 0.466-5.59-0.932-8.384 1.863-1.397 1.863 3.261 5.59-0.466 2.795-3.261-2.329-6.521 0-10.248 0.932-2.795 0.932 1.863 3.726 2.795 5.589 0.932 1.863 1.863 3.726 1.398 6.056l-5.124-5.59c-6.055 3.261-9.782 9.316-14.906 13.974-2.329 1.863-1.397 5.124-1.397 7.918-3.261 0-6.987-0.932-8.85 0.932-1.397 1.863-0.932 4.658-0.932 7.453-4.658-0.466-5.124-7.453-9.315-6.056-4.192 0.932-8.85 1.397-12.577 3.727 2.795 5.59-4.658 2.329-3.726 3.26-6.987-4.192-13.042-7.453-20.495-4.658-15.837-5.124-35.4-2.795-49.84-0.931 0-2.329 0.466-4.658-0.466-5.124-0.932 2.329-3.726 1.397-3.26 1.397-8.85-6.055-17.7-9.782-27.016-14.905-8.384 0.932-16.303-3.261-18.632-5.59-6.521-6.055-13.974-2.795-20.029-4.192-13.042-3.261-17.7-16.769-19.098-26.084-0.932-4.658-4.658-6.521-6.055-6.056-6.055-19.563-15.371-37.263-22.824-55.429-1.863-4.658-1.397-9.316-1.397-14.44 2.329 0.932 4.658 0.466 4.192-2.794-2.329-15.371-7.918-27.016-13.974-38.195 3.261-15.837 3.726-34.469 11.179-48.443 6.521-12.576 18.632-19.098 27.016-29.811 2.795-3.726 2.795-8.85 5.59-12.11 9.316-9.316 18.632-19.098 28.879-27.482 4.658-3.726 10.247 0 17.234-1.397 2.329-8.384 11.645-15.837 20.495-13.508 3.726 0.932 11.179-8.85 13.508-9.782 3.726-1.397 1.863 3.726 1.863 6.987 8.85-6.987 20.961-10.713 32.14-14.906" fill="#ffffff" fill-rule="nonzero" stroke="none" stroke-width="1" stroke-linecap="butt" stroke-linejoin="miter" stroke-miterlimit="10" stroke-dasharray="" stroke-dashoffset="0" font-family="none" font-weight="none" font-size="none" text-anchor="none" style="mix-blend-mode: normal" data-fill-palette-color="tertiary"></path></g><g transform="matrix(1,0,0,1,64,128.90432212252827)"><svg viewBox="0 0 192 102.19135575494346" height="102.19135575494346" width="192"><g><svg viewBox="0 0 192 102.19135575494346" height="102.19135575494346" width="192"><g><svg viewBox="0 0 192 102.19135575494346" height="102.19135575494346" width="192"><g transform="matrix(1,0,0,1,0,76.05495112023868)"><svg viewBox="0 0 192 26.136404634704782" height="26.136404634704782" width="192"><g id="textblocktransform"><svg viewBox="0 0 192 26.136404634704782" height="26.136404634704782" width="192" id="textblock"><g><svg viewBox="0 0 192 26.136404634704782" height="26.136404634704782" width="192"><g transform="matrix(1,0,0,1,0,0)"><svg width="192" viewBox="4.880000114440918 -37.5 351.8599853515625 47.900001525878906" height="26.136404634704782" data-palette-color="#ffffff"><path d="M19.38-37.5L4.88-37.5 4.88-32.3 13.01-32.3 13.01-5.18 4.88-5.18 4.88 0 27.17 0 27.17-5.18 19.38-5.18 19.38-37.5ZM46.19 0.49L46.19 0.49Q50.02 0.49 52.79-1.01 55.56-2.51 56.86-4.39L56.86-4.39 53.61-7.74Q52.41-6.2 50.53-5.4 48.65-4.59 46.58-4.59L46.58-4.59Q45.07-4.59 43.81-5.08 42.55-5.57 41.57-6.45L41.57-6.45Q40.65-7.3 40.1-8.37 39.55-9.45 39.23-11.11L39.23-11.11 39.23-11.21 57.37-11.21 57.37-13.89Q57.37-16.77 56.59-19.18 55.81-21.58 54.29-23.29L54.29-23.29Q52.76-25 50.55-25.95 48.34-26.9 45.48-26.9L45.48-26.9Q42.82-26.9 40.51-25.92 38.21-24.93 36.5-23.14L36.5-23.14Q34.79-21.34 33.82-18.84 32.86-16.33 32.86-13.26L32.86-13.26 32.86-12.28Q32.86-9.59 33.81-7.26 34.76-4.93 36.52-3.22L36.52-3.22Q38.28-1.49 40.73-0.5 43.19 0.49 46.19 0.49ZM45.43-21.78L45.43-21.78Q46.82-21.78 47.86-21.33 48.9-20.87 49.63-20.12L49.63-20.12Q50.34-19.36 50.74-18.31 51.14-17.26 51.14-16.16L51.14-16.16 51.14-15.67 39.38-15.67Q39.62-17.09 40.15-18.21 40.67-19.34 41.45-20.14L41.45-20.14Q42.21-20.95 43.22-21.36 44.24-21.78 45.43-21.78ZM62.91-13.4L62.91-13.4 62.91-12.89Q62.91-10.03 63.64-7.58 64.37-5.13 65.77-3.32L65.77-3.32Q67.16-1.54 69.12-0.52 71.09 0.49 73.53 0.49L73.53 0.49Q74.82 0.49 75.95 0.21 77.07-0.07 78-0.56L78-0.56Q78.61-0.9 79.16-1.35 79.71-1.81 80.2-2.37L80.2-2.37 80.2-0.68Q80.2 0.73 79.79 1.86 79.39 2.98 78.63 3.74L78.63 3.74Q77.83 4.57 76.64 4.99 75.46 5.42 73.95 5.42L73.95 5.42Q73.02 5.42 72.14 5.24 71.26 5.05 70.43 4.69L70.43 4.69Q69.6 4.3 68.82 3.7 68.04 3.1 67.33 2.29L67.33 2.29 64.42 6.13Q65.3 7.28 66.51 8.08 67.72 8.89 69.06 9.4L69.06 9.4Q70.41 9.91 71.76 10.16 73.12 10.4 74.29 10.4L74.29 10.4Q77 10.4 79.26 9.66 81.51 8.91 83.12 7.47L83.12 7.47Q84.74 6.05 85.63 3.97 86.52 1.88 86.52-0.78L86.52-0.78 86.52-26.42 80.78-26.42 80.51-23.83Q80.05-24.44 79.47-24.93 78.9-25.42 78.24-25.78L78.24-25.78Q77.29-26.34 76.13-26.62 74.97-26.9 73.58-26.9L73.58-26.9Q71.09-26.9 69.12-25.93 67.16-24.95 65.77-23.17L65.77-23.17Q64.37-21.39 63.64-18.9 62.91-16.41 62.91-13.4ZM69.23-12.89L69.23-12.89 69.23-13.4Q69.23-15.14 69.59-16.65 69.94-18.16 70.67-19.31L70.67-19.31Q71.41-20.43 72.52-21.08 73.63-21.73 75.17-21.73L75.17-21.73Q76.02-21.73 76.75-21.56 77.49-21.39 78.07-21.07L78.07-21.07Q78.75-20.73 79.28-20.18 79.8-19.63 80.2-18.9L80.2-18.9 80.2-7.52Q79.83-6.86 79.34-6.34 78.85-5.81 78.22-5.42L78.22-5.42Q77.58-5.05 76.83-4.87 76.07-4.69 75.12-4.69L75.12-4.69Q73.58-4.69 72.47-5.32 71.36-5.96 70.65-7.08L70.65-7.08Q69.92-8.2 69.58-9.69 69.23-11.18 69.23-12.89ZM92.62-13.45L92.62-13.45 92.62-12.94Q92.62-10.03 93.45-7.58 94.28-5.13 95.89-3.32L95.89-3.32Q97.45-1.51 99.76-0.5 102.07 0.51 105.02 0.51L105.02 0.51Q107.95 0.51 110.25-0.5 112.54-1.51 114.13-3.32L114.13-3.32Q115.69-5.13 116.52-7.58 117.35-10.03 117.35-12.94L117.35-12.94 117.35-13.45Q117.35-16.33 116.52-18.79 115.69-21.24 114.13-23.05L114.13-23.05Q112.52-24.85 110.22-25.88 107.93-26.9 104.97-26.9L104.97-26.9Q102.04-26.9 99.75-25.88 97.45-24.85 95.89-23.05L95.89-23.05Q94.28-21.24 93.45-18.79 92.62-16.33 92.62-13.45ZM98.92-12.94L98.92-12.94 98.92-13.45Q98.92-15.14 99.27-16.64 99.63-18.14 100.36-19.29L100.36-19.29Q101.09-20.46 102.24-21.12 103.39-21.78 104.97-21.78L104.97-21.78Q106.58-21.78 107.73-21.12 108.88-20.46 109.61-19.29L109.61-19.29Q110.32-18.14 110.67-16.64 111.03-15.14 111.03-13.45L111.03-13.45 111.03-12.94Q111.03-11.21 110.67-9.69 110.32-8.18 109.61-7.06L109.61-7.06Q108.88-5.88 107.73-5.22 106.58-4.57 105.02-4.57L105.02-4.57Q103.41-4.57 102.25-5.22 101.09-5.88 100.36-7.06L100.36-7.06Q99.63-8.18 99.27-9.69 98.92-11.21 98.92-12.94ZM165.22-4.57L165.22-4.57Q163.49-4.57 162.35-5.26 161.22-5.96 160.56-7.1L160.56-7.1Q159.85-8.25 159.58-9.73 159.31-11.21 159.31-12.79L159.31-12.79 159.31-13.57Q159.31-15.14 159.59-16.61 159.88-18.09 160.56-19.24L160.56-19.24Q161.24-20.39 162.37-21.08 163.49-21.78 165.2-21.78L165.2-21.78Q166.37-21.78 167.35-21.39 168.32-21 169.03-20.31L169.03-20.31Q169.71-19.65 170.09-18.74 170.47-17.82 170.45-16.8L170.45-16.8 176.4-16.8Q176.43-19.07 175.61-20.94 174.79-22.8 173.3-24.12L173.3-24.12Q171.81-25.44 169.76-26.17 167.71-26.9 165.3-26.9L165.3-26.9Q162.24-26.9 159.95-25.85 157.65-24.8 156.12-23L156.12-23Q154.55-21.17 153.77-18.75 152.99-16.33 152.99-13.57L152.99-13.57 152.99-12.79Q152.99-10.03 153.78-7.62 154.58-5.2 156.12-3.39L156.12-3.39Q157.65-1.59 159.96-0.54 162.27 0.51 165.32 0.51L165.32 0.51Q167.57 0.51 169.58-0.21 171.59-0.93 173.11-2.2L173.11-2.2Q174.65-3.44 175.54-5.16 176.43-6.88 176.4-8.89L176.4-8.89 170.45-8.89Q170.47-7.91 170.06-7.12 169.64-6.32 168.91-5.76L168.91-5.76Q168.18-5.2 167.22-4.88 166.27-4.57 165.22-4.57ZM182.63-13.45L182.63-13.45 182.63-12.94Q182.63-10.03 183.46-7.58 184.29-5.13 185.9-3.32L185.9-3.32Q187.46-1.51 189.77-0.5 192.07 0.51 195.03 0.51L195.03 0.51Q197.96 0.51 200.25-0.5 202.55-1.51 204.14-3.32L204.14-3.32Q205.7-5.13 206.53-7.58 207.36-10.03 207.36-12.94L207.36-12.94 207.36-13.45Q207.36-16.33 206.53-18.79 205.7-21.24 204.14-23.05L204.14-23.05Q202.52-24.85 200.23-25.88 197.93-26.9 194.98-26.9L194.98-26.9Q192.05-26.9 189.76-25.88 187.46-24.85 185.9-23.05L185.9-23.05Q184.29-21.24 183.46-18.79 182.63-16.33 182.63-13.45ZM188.93-12.94L188.93-12.94 188.93-13.45Q188.93-15.14 189.28-16.64 189.63-18.14 190.37-19.29L190.37-19.29Q191.1-20.46 192.25-21.12 193.39-21.78 194.98-21.78L194.98-21.78Q196.59-21.78 197.74-21.12 198.89-20.46 199.62-19.29L199.62-19.29Q200.33-18.14 200.68-16.64 201.03-15.14 201.03-13.45L201.03-13.45 201.03-12.94Q201.03-11.21 200.68-9.69 200.33-8.18 199.62-7.06L199.62-7.06Q198.89-5.88 197.74-5.22 196.59-4.57 195.03-4.57L195.03-4.57Q193.42-4.57 192.26-5.22 191.1-5.88 190.37-7.06L190.37-7.06Q189.63-8.18 189.28-9.69 188.93-11.21 188.93-12.94ZM213.63-26.42L213.63 0 219.95 0 219.95-18.8Q220.32-19.41 220.78-19.91 221.25-20.41 221.81-20.78L221.81-20.78Q222.49-21.24 223.36-21.48 224.23-21.73 225.28-21.73L225.28-21.73Q226.5-21.73 227.46-21.48 228.42-21.24 229.11-20.61L229.11-20.61Q229.79-20 230.16-18.93 230.52-17.87 230.52-16.26L230.52-16.26 230.52 0 236.82 0 236.82-16.36Q236.82-19.19 236.16-21.19 235.5-23.19 234.31-24.46L234.31-24.46Q233.09-25.73 231.42-26.32 229.74-26.9 227.74-26.9L227.74-26.9Q226.18-26.9 224.79-26.46 223.4-26.03 222.22-25.2L222.22-25.2Q221.52-24.71 220.89-24.08 220.27-23.46 219.73-22.71L219.73-22.71 219.34-26.42 213.63-26.42ZM260.77-7.2L260.77-7.2Q260.77-6.59 260.48-6.07 260.19-5.54 259.62-5.13L259.62-5.13Q258.96-4.66 257.9-4.39 256.84-4.13 255.4-4.13L255.4-4.13Q254.3-4.13 253.24-4.35 252.18-4.57 251.32-5.08L251.32-5.08Q250.49-5.57 249.96-6.37 249.42-7.18 249.32-8.33L249.32-8.33 243.27-8.33Q243.27-6.69 244.06-5.1 244.85-3.52 246.37-2.29L246.37-2.29Q247.88-1.03 250.13-0.26 252.37 0.51 255.3 0.51L255.3 0.51Q257.91 0.51 260.08-0.09 262.24-0.68 263.75-1.73L263.75-1.73Q265.26-2.81 266.09-4.27 266.92-5.74 266.92-7.5L266.92-7.5Q266.92-9.35 266.12-10.69 265.31-12.04 263.85-13.01L263.85-13.01Q262.41-13.96 260.38-14.59 258.35-15.21 255.96-15.63L255.96-15.63Q254.25-15.89 253.15-16.24 252.06-16.58 251.42-17.02L251.42-17.02Q250.76-17.43 250.5-17.96 250.25-18.48 250.25-19.09L250.25-19.09Q250.25-19.73 250.55-20.29 250.86-20.85 251.42-21.26L251.42-21.26Q252.03-21.73 253-21.98 253.96-22.24 255.25-22.24L255.25-22.24Q256.69-22.24 257.74-21.88 258.79-21.51 259.45-20.9L259.45-20.9Q259.97-20.39 260.23-19.76 260.5-19.14 260.5-18.43L260.5-18.43 266.8-18.43Q266.8-20.24 266.01-21.79 265.21-23.34 263.73-24.49L263.73-24.49Q262.24-25.61 260.09-26.26 257.94-26.9 255.25-26.9L255.25-26.9Q252.69-26.9 250.63-26.26 248.56-25.61 247.12-24.49L247.12-24.49Q245.68-23.39 244.91-21.92 244.15-20.46 244.15-18.82L244.15-18.82Q244.15-17.14 244.9-15.86 245.66-14.58 247.03-13.62L247.03-13.62Q248.37-12.65 250.27-11.95 252.18-11.25 254.5-10.79L254.5-10.79Q256.33-10.45 257.54-10.08 258.74-9.72 259.48-9.3L259.48-9.3Q260.21-8.86 260.49-8.36 260.77-7.86 260.77-7.2ZM290.53-3.69L290.9 0 296.63 0 296.63-26.42 290.29-26.42 290.29-7.79Q289.97-7.13 289.5-6.57 289.04-6.01 288.45-5.62L288.45-5.62Q287.75-5.15 286.81-4.91 285.87-4.66 284.69-4.66L284.69-4.66Q283.47-4.66 282.62-4.96 281.76-5.25 281.2-5.98L281.2-5.98Q280.67-6.67 280.41-7.84 280.15-9.01 280.15-10.72L280.15-10.72 280.15-26.42 273.83-26.42 273.83-10.77Q273.83-7.79 274.5-5.65 275.17-3.52 276.39-2.15L276.39-2.15Q277.59-0.76 279.3-0.12 281.01 0.51 283.06 0.51L283.06 0.51Q285.38 0.51 287.29-0.61 289.21-1.73 290.53-3.69L290.53-3.69ZM319.41-37.5L304.91-37.5 304.91-32.3 313.04-32.3 313.04-5.18 304.91-5.18 304.91 0 327.2 0 327.2-5.18 319.41-5.18 319.41-37.5ZM345.72-26.42L345.72-32.86 339.4-32.86 339.4-26.42 333.18-26.42 333.18-21.73 339.4-21.73 339.4-9.23Q339.4-6.64 340.07-4.81 340.74-2.98 341.99-1.81L341.99-1.81Q343.21-0.61 344.93-0.05 346.65 0.51 348.73 0.51L348.73 0.51Q349.85 0.51 350.99 0.4 352.12 0.29 353.17 0.1L353.17 0.1Q354.22-0.1 355.14-0.39 356.05-0.68 356.74-1.07L356.74-1.07 356.08-5.44Q355.64-5.32 354.99-5.2 354.34-5.08 353.61-4.98L353.61-4.98Q352.85-4.86 352.04-4.77 351.22-4.69 350.46-4.69L350.46-4.69Q349.41-4.69 348.53-4.93 347.65-5.18 347.02-5.79L347.02-5.79Q346.41-6.35 346.07-7.31 345.72-8.28 345.72-9.74L345.72-9.74 345.72-21.73 355.61-21.73 355.61-26.42 345.72-26.42Z" opacity="1" transform="matrix(1,0,0,1,0,0)" fill="#ffffff" class="wordmark-text-0" data-fill-palette-color="primary" id="text-0"></path></svg></g></svg></g></svg></g></svg></g><g transform="matrix(1,0,0,1,64.43857191607984,0)"><svg viewBox="0 0 63.122856167840325 72.24102241032402" height="72.24102241032402" width="63.122856167840325"><g><svg xmlns="http://www.w3.org/2000/svg" xmlns:xlink="http://www.w3.org/1999/xlink" version="1.1" x="0" y="0" viewBox="2.0189995765686035 0 27.961002349853516 32" enable-background="new 0 0 32 32" xml:space="preserve" height="72.24102241032402" width="63.122856167840325" class="icon-icon-0" data-fill-palette-color="accent" id="icon-0"><g display="none" fill="#ffffff" data-fill-palette-color="accent"><path display="inline" d="M16 2.936C7.163 2.936 0 7.889 0 14c0 4.443 3.796 8.264 9.26 10.023L8 29.064l6.74-4.045c0.417 0.023 0.834 0.045 1.26 0.045 8.837 0 16-4.955 16-11.064C32 7.889 24.837 2.936 16 2.936zM21 18.936H11c-0.553 0-1-0.447-1-1s0.447-1 1-1h10c0.553 0 1 0.447 1 1S21.553 18.936 21 18.936zM21 14.936H11c-0.553 0-1-0.447-1-1s0.447-1 1-1h10c0.553 0 1 0.447 1 1S21.553 14.936 21 14.936zM21 10.936H11c-0.553 0-1-0.447-1-1s0.447-1 1-1h10c0.553 0 1 0.447 1 1S21.553 10.936 21 10.936z" fill="#ffffff" data-fill-palette-color="accent"></path></g><g fill="#ffffff" data-fill-palette-color="accent"><path d="M23.301 5.004h-0.348V0.988C22.953 0.441 19.84 0 16 0c-3.844 0-6.957 0.441-6.957 0.988v4.016H8.695c-3.688 0-6.676 3.031-6.676 6.768v10.291c0 3.252 2.266 5.965 5.283 6.613v2.479C7.303 31.623 11.195 32 16 32c4.801 0 8.693-0.377 8.693-0.846v-2.479c3.017-0.649 5.287-3.361 5.287-6.613V11.771C29.98 8.035 26.988 5.004 23.301 5.004zM10.406 16c0-1.012 0.811-1.834 1.811-1.834s1.811 0.822 1.811 1.834-0.811 1.834-1.811 1.834S10.406 17.012 10.406 16zM16 24.084c-2.219 0-4.688-1.061-4.688-2.582 0-0.553 0.441-1 0.988-1 0.473 0 0.867 0.336 0.965 0.787 0.262 0.264 1.299 0.795 2.734 0.795 1.434 0 2.473-0.533 2.734-0.795 0.098-0.451 0.492-0.787 0.965-0.787 0.547 0 0.988 0.447 0.988 1C20.688 23.023 18.219 24.084 16 24.084zM19.785 17.834c-1.004 0-1.812-0.822-1.812-1.834s0.809-1.834 1.812-1.834c0.996 0 1.807 0.822 1.807 1.834S20.781 17.834 19.785 17.834z" fill="#ffffff" data-fill-palette-color="accent"></path></g></svg></g></svg></g><g></g></svg></g></svg></g></svg></g></svg></g><defs></defs></svg><rect width="320" height="360" fill="none" stroke="none" visibility="hidden"></rect></g></svg></g></svg>